<?xml version="1.0" standalone="no"?>
<!DOCTYPE svg PUBLIC "-//W3C//DTD SVG 20010904//EN"
 "http://www.w3.org/TR/2001/REC-SVG-20010904/DTD/svg10.dtd">
<svg version="1.0" xmlns="http://www.w3.org/2000/svg"
 width="512.000000pt" height="512.000000pt" viewBox="0 0 512.000000 512.000000"
 preserveAspectRatio="xMidYMid meet">

<g transform="translate(0.000000,512.000000) scale(0.100000,-0.100000)"
fill="#000000" stroke="none">
<path d="M2315 5109 c-800 -83 -1501 -518 -1927 -1196 -604 -960 -491 -2229
272 -3065 423 -463 951 -740 1585 -830 118 -17 511 -16 635 0 579 80 1097 337
1491 739 130 132 157 163 243 277 256 341 423 757 488 1211 17 118 17 512 0
630 -43 303 -122 561 -247 814 -134 268 -270 459 -483 674 -395 400 -889 649
-1457 733 -123 18 -478 26 -600 13z m1435 -1037 c99 -50 147 -140 137 -259 -9
-112 -80 -196 -194 -229 -143 -42 -300 59 -328 209 -4 20 -10 37 -14 37 -3 0
-121 25 -261 55 -140 30 -262 55 -270 55 -12 0 -33 -84 -98 -387 -45 -214 -82
-394 -82 -400 0 -9 18 -13 58 -13 80 0 247 -25 361 -54 190 -48 364 -121 511
-215 l63 -39 49 34 c126 86 301 86 423 0 104 -74 158 -178 158 -306 0 -127
-55 -234 -160 -307 l-53 -36 0 -107 c0 -187 -58 -347 -184 -506 -214 -271
-592 -461 -1029 -519 -147 -19 -407 -19 -548 0 -540 71 -977 338 -1148 700
-52 111 -65 169 -65 307 l-1 127 -37 21 c-57 32 -134 123 -158 188 -18 47 -21
72 -18 147 5 111 27 164 99 240 71 75 140 107 245 113 95 5 158 -12 233 -62
l49 -33 53 34 c143 92 358 181 535 224 103 24 272 49 344 49 30 0 61 4 68 9 9
5 51 182 108 452 52 244 96 450 99 457 11 30 53 36 133 19 42 -9 184 -39 315
-67 l238 -51 46 51 c92 102 202 124 323 62z"/>
<path d="M1883 2544 c-61 -22 -127 -85 -153 -145 -17 -42 -21 -66 -18 -118 5
-77 25 -125 75 -174 49 -50 97 -70 174 -75 241 -15 371 276 199 448 -20 20
-53 44 -75 54 -52 25 -149 30 -202 10z"/>
<path d="M3071 2548 c-108 -31 -191 -143 -191 -259 0 -95 71 -200 161 -239 63
-26 162 -25 220 4 47 22 103 78 125 125 29 58 30 157 4 220 -52 120 -192 186
-319 149z"/>
<path d="M1936 1689 c-38 -30 -35 -73 9 -114 75 -72 220 -133 379 -162 111
-20 339 -22 451 -4 163 26 331 96 408 169 36 35 35 86 -4 115 -32 23 -52 18
-106 -25 -146 -118 -467 -167 -745 -114 -128 25 -204 57 -307 131 -41 30 -51
31 -85 4z"/>
</g>
</svg>
