<?xml version="1.0" encoding="utf-8"?>
<!-- Generator: Adobe Illustrator 25.0.1, SVG Export Plug-In . SVG Version: 6.00 Build 0)  -->
<svg version="1.0" id="Layer_1" xmlns="http://www.w3.org/2000/svg" xmlns:xlink="http://www.w3.org/1999/xlink" x="0px" y="0px"
	 viewBox="0 0 860.8 608.8" style="enable-background:new 0 0 860.8 608.8;" xml:space="preserve">
<g>
	<g>
		<g>
			<path d="M431.4,50.8c-138.4,0-251,112.4-251,250.5c0,42.8,11.5,85.5,33.3,123.8L176.8,558L312,521.5
				c39.4,21.5,80.7,32.9,119.4,32.9c136.9,0,252.6-115.9,252.6-253.1C684,163.2,570.7,50.8,431.4,50.8z M431.4,512.4
				c-36.7,0-74.3-11.2-108.9-32.3l-4.4-2.7l-82.5,21.2l22.5-79.8l-2.9-4.6c-21.4-33.4-32.8-72.4-32.8-113
				c0-115,93.8-208.6,209.1-208.6c116.1,0,210.6,93.6,210.6,208.6C642,417.7,547.6,512.4,431.4,512.4z"/>
			<path d="M476.3,364.1c-3.8,4.9-10.3,6.8-16.1,4.8c-14.8-5.2-65.3-26.3-93-79.6c-2.7-5.3-2-11.6,1.9-16.1l19.9-23l-22.9-53.1
				l-15.6-0.8c-0.2,0-0.4,0-0.6,0c-2.6,0-5,0.9-6.9,2.6c-6.4,5.5-17.6,17-20.8,31.6c-5.1,22.8,3.4,50.8,23.9,78.8
				c13.5,18.5,54.8,74.7,132.9,96.7c18.6,5.3,35.4,3.3,49.9-6c9.3-5.9,16-15.7,18.4-26.9l2.5-11.7l-52.9-24.2L476.3,364.1z"/>
			<path d="M431.4,109.6c-106,0-192.3,86-192.3,191.8c0,37.3,10.4,73.2,30.1,103.9l7,10.9l-16.6,59l61.1-15.7l10.4,6.4
				c32,19.5,66.6,29.8,100.2,29.8c106.9,0,193.8-87.2,193.8-194.3C625.2,195.6,538.3,109.6,431.4,109.6z M566.1,364.9l-2.5,11.7
				c-3.3,15.5-12.7,29.1-25.7,37.5c-12,7.7-25.2,11.6-39.3,11.6c-7.8,0-15.9-1.2-24.2-3.5c-83.7-23.7-127.4-83.3-141.8-103
				c-23.5-32-33-64.8-26.8-92.5c4.3-19.2,18.3-33.7,26.2-40.5c5.4-4.7,12.4-7,19.5-6.7l15.7,0.9c6.3,0.3,11.8,4.2,14.3,10l22.9,53.5
				c2.5,5.8,1.4,12.6-2.7,17.3L382.8,283c24,45,66.3,64,81.2,69.5l19.8-25.6c4.8-6.1,13-8.1,20-4.9l53.1,24.5
				C563.9,349.6,567.8,357.2,566.1,364.9z"/>
		</g>
	</g>
</g>
</svg>
